<?xml version="1.0" encoding="utf-8"?>
<!-- Generator: Adobe Illustrator 24.1.1, SVG Export Plug-In . SVG Version: 6.00 Build 0)  -->
<svg version="1.1" id="Layer_1" xmlns="http://www.w3.org/2000/svg" xmlns:xlink="http://www.w3.org/1999/xlink" x="0px" y="0px"
	 viewBox="0 0 500 500" style="enable-background:new 0 0 500 500;" xml:space="preserve">
<style type="text/css">
	.st0{fill:#293939;}
</style>
<path class="st0" d="M249.69,375.79c-69.23,0-125.55-56.32-125.55-125.55s56.32-125.55,125.55-125.55s125.55,56.32,125.55,125.55
	S318.92,375.79,249.69,375.79z M249.69,125.35c-68.86,0-124.89,56.03-124.89,124.89s56.03,124.89,124.89,124.89
	s124.89-56.03,124.89-124.89S318.55,125.35,249.69,125.35z"/>
<g>
	<path class="st0" d="M138.4,234.75h1.58l0.01,3.17l0.23,0.23l28.53-0.04v2.04l-28.53,0.03l-0.23,0.23l0.01,3.62h-1.58L138.4,234.75
		z M168.75,241.5l-24.74,17.47v0.23l-3.76,2.04l-0.23,0.23l0.01,3.62h-1.59l-0.01-7.24l24.74-17.47v-0.23l5.57-0.01V241.5z
		 M168.78,265.04h-1.58l-0.01-3.62l-0.23-0.23l-26.72,0.03l3.76-2.04l22.95-0.03l0.23-0.23l-0.01-3.62h1.58L168.78,265.04z"/>
	<path class="st0" d="M147.35,205.39c1.11-2.54,2.72-4.55,4.82-6.02c2.09-1.47,4.47-2.31,7.13-2.51c2.66-0.2,5.39,0.31,8.18,1.54
		c2.05,0.89,3.79,2.07,5.23,3.53c1.44,1.46,2.53,3.08,3.27,4.88c0.75,1.8,1.13,3.65,1.14,5.57c0.01,1.92-0.37,3.78-1.16,5.57
		c-1.12,2.54-2.72,4.55-4.82,6.02s-4.47,2.31-7.13,2.5s-5.39-0.31-8.18-1.54c-2.04-0.89-3.79-2.07-5.23-3.53
		c-1.44-1.45-2.53-3.08-3.27-4.88c-0.75-1.8-1.13-3.65-1.14-5.57C146.18,209.05,146.56,207.2,147.35,205.39z M174.49,216.8
		c0.83-1.91,1.01-3.76,0.53-5.55c-0.48-1.8-1.52-3.45-3.11-4.97c-1.59-1.52-3.64-2.84-6.16-3.94c-2.41-1.05-4.72-1.64-6.95-1.74
		c-2.23-0.11-4.21,0.32-5.96,1.29c-1.74,0.97-3.08,2.52-4.02,4.65c-0.82,1.88-1,3.72-0.52,5.53c0.48,1.81,1.51,3.47,3.1,5
		c1.59,1.52,3.64,2.84,6.16,3.94c2.41,1.05,4.72,1.64,6.95,1.74c2.23,0.11,4.21-0.32,5.96-1.29
		C172.21,220.48,173.55,218.94,174.49,216.8z"/>
	<path class="st0" d="M201.15,184.86l-29.62-6.33l-0.17,0.15l-4.05-1.37L167,177.3l-2.66,2.46l-1.08-1.16l5.31-4.92l29.62,6.33
		l0.17-0.15l3.78,4.08L201.15,184.86z M183.87,200.86l-1.07-1.16l2.66-2.46l0.01-0.32l-18.15-19.6l4.05,1.37l15.6,16.84l0.32,0.01
		l2.66-2.46l1.08,1.16L183.87,200.86z M185.52,157.99l1.08,1.16l-2.33,2.15l-0.01,0.32l19.38,20.93l-1.5,1.38L182.76,163l-0.32-0.01
		l-2.66,2.46l-1.07-1.16L185.52,157.99z"/>
	<path class="st0" d="M209.97,178.85l-0.58-1.47l3.37-1.32l0.13-0.29l-9.75-24.88l-0.29-0.13l-3.37,1.32l-0.58-1.47l19.65-7.7
		l4.16,6.15l-1.24,0.97c-0.98-1.33-1.95-2.29-2.92-2.84c-0.97-0.56-2.04-0.8-3.23-0.73c-1.19,0.07-2.59,0.43-4.22,1.07l-4.05,1.59
		l-0.13,0.29l5.45,13.92l-2.64-1.15l6.66-2.61c1.21-0.48,1.99-1.14,2.35-1.99c0.36-0.85,0.24-2.23-0.38-4.13l1.48-0.58l4.21,10.75
		l-1.48,0.58c-0.84-1.81-1.68-2.91-2.53-3.29s-1.88-0.34-3.08,0.14l-6.66,2.61l1.15-2.64l5.2,13.28l0.29,0.13l5.06-1.98l0.58,1.48
		L209.97,178.85z"/>
	<path class="st0" d="M245.28,140.46l-3.6,0.34l-0.21,0.25l2.52,26.6l0.25,0.21l3.6-0.34l0.15,1.58l-11.72,1.11l-0.15-1.58l3.6-0.34
		l0.21-0.25l-2.52-26.6l-0.25-0.21l-3.6,0.34l-0.15-1.58l11.72-1.11L245.28,140.46z"/>
	<path class="st0" d="M269.18,170c1.92,0.42,3.87,0.36,5.86-0.19c1.99-0.54,4-1.58,6.03-3.11l0.97,1.28
		c-2.01,1.72-4.18,2.94-6.49,3.66c-2.32,0.72-4.84,0.78-7.55,0.19l-0.05-0.01c-2.03-0.44-3.83-1.23-5.37-2.35
		c-1.55-1.13-2.81-2.5-3.78-4.13c-0.97-1.63-1.62-3.44-1.92-5.42c-0.31-1.98-0.23-4.05,0.24-6.2c0.49-2.27,1.34-4.27,2.53-5.98
		c1.19-1.72,2.62-3.12,4.3-4.21c1.67-1.09,3.49-1.82,5.45-2.17c1.96-0.36,3.96-0.32,6,0.13c1.48,0.32,2.76,0.81,3.88,1.46
		c1.11,0.66,2.12,1.44,3.03,2.35l1.31-1.57l1.55,0.34c-0.21,1.53-0.35,3.02-0.42,4.47c-0.07,1.45-0.11,2.9-0.11,4.35l-1.56,0.13
		c-0.19-1.71-0.58-3.15-1.17-4.33c-0.59-1.18-1.29-2.14-2.08-2.88c-0.8-0.74-1.63-1.32-2.5-1.72s-1.69-0.7-2.45-0.86
		c-2.15-0.46-4.14-0.3-5.97,0.48c-1.83,0.8-3.39,2.11-4.7,3.94c-1.31,1.84-2.25,4.06-2.82,6.69c-0.58,2.65-0.65,5.08-0.22,7.28
		c0.43,2.19,1.33,4.03,2.7,5.5C265.22,168.55,267,169.52,269.18,170z"/>
	<path class="st0" d="M319.04,162.47l-2.51,6.99l-1.5-0.42c0.5-1.58,0.69-2.92,0.56-4.04s-0.63-2.17-1.51-3.16
		c-0.87-0.99-2.18-2.03-3.91-3.13l-14.45,22.73l0.07,0.31l3.05,1.94l-0.85,1.34l-9.93-6.31l0.85-1.34l3.05,1.95l0.31-0.07
		l14.45-22.73c-1.73-1.1-3.23-1.84-4.47-2.2c-1.25-0.37-2.42-0.38-3.5-0.03c-1.08,0.35-2.23,1.09-3.45,2.21l-1.01-1.19l5.26-5.23
		L319.04,162.47z"/>
	<path class="st0" d="M336.23,182.57l-2.39-2.73l-0.32-0.02l-20.12,17.57l-0.02,0.32l2.39,2.73l-1.19,1.04l-7.75-8.87l1.19-1.04
		l2.39,2.73l0.32,0.02l20.12-17.57l0.02-0.32l-2.38-2.73l1.19-1.04l7.75,8.87L336.23,182.57z"/>
	<path class="st0" d="M352.83,207.28c1.07,2.56,1.4,5.11,1.02,7.64c-0.38,2.53-1.42,4.82-3.12,6.88c-1.7,2.06-3.95,3.68-6.77,4.84
		c-2.06,0.85-4.11,1.3-6.16,1.33c-2.05,0.03-3.98-0.3-5.78-1.01c-1.81-0.7-3.42-1.71-4.81-3.03c-1.4-1.31-2.47-2.88-3.23-4.69
		c-1.07-2.56-1.4-5.11-1.02-7.64c0.38-2.53,1.42-4.82,3.12-6.88c1.7-2.06,3.95-3.68,6.76-4.84c2.06-0.86,4.11-1.31,6.16-1.34
		c2.05-0.03,3.98,0.3,5.78,1c1.81,0.7,3.42,1.71,4.81,3.03C351.01,203.9,352.08,205.47,352.83,207.28z M325.83,218.99
		c0.8,1.92,2.01,3.33,3.64,4.22c1.63,0.89,3.55,1.29,5.75,1.19c2.19-0.1,4.57-0.67,7.1-1.72c2.43-1.01,4.45-2.28,6.06-3.82
		s2.68-3.27,3.19-5.2c0.5-1.93,0.31-3.96-0.58-6.11c-0.79-1.9-2-3.3-3.63-4.2c-1.64-0.91-3.55-1.31-5.75-1.21
		c-2.2,0.1-4.57,0.67-7.1,1.72c-2.43,1.01-4.45,2.28-6.06,3.82c-1.62,1.54-2.68,3.27-3.18,5.2
		C324.75,214.8,324.94,216.84,325.83,218.99z"/>
	<path class="st0" d="M360.67,267.67l-1.58-0.03l0.05-3.17l-0.23-0.23l-28.52-0.48l0.03-2.03l28.52,0.48l0.23-0.23l0.06-3.62
		l1.58,0.03L360.67,267.67z M330.46,260.37l25.05-17.02v-0.23l3.79-1.97l0.23-0.23l0.06-3.62l1.58,0.03l-0.12,7.24L336,261.59v0.23
		l-5.57-0.09L330.46,260.37z M330.85,236.83l1.58,0.03l-0.06,3.62l0.23,0.23l26.71,0.44l-3.79,1.97l-22.95-0.38l-0.23,0.23
		l-0.06,3.62l-1.58-0.03L330.85,236.83z"/>
	<path class="st0" d="M351.22,296.78c-1.16,2.52-2.8,4.5-4.92,5.94c-2.12,1.44-4.51,2.23-7.18,2.39c-2.66,0.15-5.38-0.4-8.15-1.68
		c-2.03-0.93-3.75-2.14-5.17-3.62c-1.41-1.48-2.47-3.12-3.19-4.93s-1.06-3.67-1.05-5.59c0.02-1.92,0.44-3.77,1.26-5.55
		c1.16-2.52,2.8-4.5,4.92-5.94c2.12-1.44,4.51-2.23,7.18-2.39c2.66-0.15,5.38,0.4,8.15,1.68c2.03,0.93,3.75,2.14,5.16,3.62
		c1.41,1.48,2.48,3.12,3.19,4.93s1.06,3.67,1.05,5.59C352.46,293.15,352.05,295,351.22,296.78z M324.3,284.91
		c-0.87,1.89-1.08,3.74-0.63,5.54c0.45,1.8,1.46,3.47,3.02,5.03c1.56,1.55,3.6,2.9,6.09,4.04c2.39,1.1,4.69,1.72,6.92,1.86
		c2.23,0.14,4.22-0.25,5.98-1.19c1.76-0.93,3.13-2.46,4.1-4.57c0.86-1.87,1.06-3.7,0.62-5.52c-0.44-1.82-1.45-3.5-3.01-5.05
		c-1.56-1.55-3.6-2.9-6.09-4.04c-2.39-1.1-4.69-1.72-6.92-1.86c-2.23-0.15-4.22,0.25-5.98,1.19
		C326.63,281.26,325.27,282.8,324.3,284.91z"/>
	<path class="st0" d="M312.18,343.57l-1.05-1.18l2.37-2.11l0.02-0.32l-19-21.28l1.52-1.36l19,21.28l0.32,0.02l2.7-2.41l1.05,1.19
		L312.18,343.57z M297.03,316.42l29.5,6.86l0.17-0.15l4.02,1.44l0.32,0.01l2.7-2.41l1.05,1.18l-5.4,4.82l-29.5-6.86l-0.17,0.15
		l-3.71-4.15L297.03,316.42z M314.59,300.73l1.05,1.19l-2.7,2.41l-0.02,0.32l17.8,19.93l-4.02-1.44l-15.29-17.12l-0.32-0.02
		l-2.7,2.41l-1.05-1.18L314.59,300.73z"/>
	<path class="st0" d="M288.13,322.27l0.55,1.48l-3.4,1.26l-0.13,0.29l9.3,25.04l0.29,0.13l3.4-1.27l0.55,1.48l-19.78,7.34
		l-4.05-6.22l1.25-0.94c0.95,1.35,1.91,2.32,2.86,2.9c0.95,0.58,2.03,0.84,3.21,0.79c1.19-0.05,2.6-0.38,4.24-1l4.08-1.51l0.13-0.29
		l-5.2-14.01l2.62,1.2l-6.71,2.49c-1.22,0.45-2.01,1.1-2.39,1.95s-0.28,2.23,0.3,4.14l-1.48,0.55l-4.02-10.81l1.48-0.55
		c0.81,1.82,1.63,2.94,2.47,3.33s1.87,0.37,3.09-0.08l6.71-2.49l-1.2,2.62l-4.96-13.37l-0.29-0.13l-5.09,1.9l-0.55-1.49
		L288.13,322.27z"/>
	<path class="st0" d="M252.13,360.01l3.61-0.28l0.21-0.25l-2.05-26.63l-0.25-0.21l-3.61,0.28l-0.12-1.58l11.74-0.9l0.13,1.58
		l-3.61,0.28l-0.21,0.25l2.04,26.64l0.25,0.21l3.61-0.28l0.12,1.58l-11.74,0.9L252.13,360.01z"/>
	<path class="st0" d="M228.72,330.05c-1.91-0.45-3.86-0.42-5.86,0.08c-1.99,0.5-4.02,1.5-6.08,3l-0.95-1.29
		c2.04-1.69,4.23-2.87,6.56-3.55c2.33-0.68,4.85-0.69,7.55-0.05l0.05,0.01c2.03,0.48,3.8,1.3,5.33,2.45
		c1.52,1.15,2.76,2.55,3.7,4.21c0.95,1.65,1.55,3.47,1.82,5.46c0.27,1.99,0.16,4.06-0.35,6.2c-0.54,2.26-1.42,4.24-2.64,5.94
		c-1.23,1.7-2.68,3.07-4.37,4.13c-1.7,1.05-3.53,1.75-5.49,2.07c-1.97,0.32-3.97,0.25-6-0.23c-1.46-0.34-2.75-0.86-3.84-1.54
		c-1.1-0.68-2.09-1.48-2.99-2.41l-1.35,1.54l-1.54-0.36c0.24-1.52,0.4-3.01,0.5-4.47s0.16-2.9,0.19-4.35l1.56-0.1
		c0.15,1.71,0.52,3.16,1.09,4.35c0.57,1.19,1.25,2.17,2.03,2.92c0.78,0.76,1.6,1.35,2.46,1.77c0.86,0.42,1.68,0.72,2.44,0.9
		c2.15,0.51,4.13,0.38,5.98-0.38c1.84-0.76,3.43-2.04,4.77-3.85c1.35-1.81,2.33-4.02,2.94-6.63c0.63-2.64,0.74-5.07,0.35-7.27
		c-0.39-2.2-1.26-4.06-2.59-5.55C232.65,331.57,230.9,330.56,228.72,330.05z"/>
	<path class="st0" d="M178.83,336.75l2.63-6.94l1.5,0.44c-0.53,1.57-0.74,2.91-0.63,4.04c0.11,1.12,0.6,2.18,1.45,3.19
		c0.86,1,2.15,2.06,3.86,3.19l14.84-22.49l-0.07-0.31l-3.02-1.99l0.87-1.32l9.83,6.48l-0.87,1.32l-3.02-1.99l-0.31,0.07
		l-14.84,22.49c1.72,1.13,3.19,1.89,4.44,2.28c1.25,0.39,2.41,0.42,3.5,0.09c1.09-0.33,2.25-1.05,3.48-2.15l1,1.2l-5.35,5.15
		L178.83,336.75z"/>
	<path class="st0" d="M161.94,316.27l2.33,2.77l0.32,0.03l20.44-17.2l0.03-0.32l-2.33-2.77l1.21-1.02l7.58,9.01l-1.21,1.02
		l-2.33-2.77l-0.32-0.03l-20.44,17.2l-0.03,0.32l2.33,2.77l-1.21,1.02l-7.58-9.01L161.94,316.27z"/>
	<path class="st0" d="M145.81,291.33c-1.02-2.58-1.31-5.14-0.88-7.66c0.43-2.52,1.51-4.8,3.24-6.83c1.73-2.03,4.02-3.6,6.84-4.72
		c2.08-0.82,4.14-1.23,6.18-1.23c2.05,0,3.97,0.37,5.76,1.11c1.8,0.73,3.39,1.77,4.76,3.11c1.37,1.34,2.42,2.92,3.14,4.74
		c1.02,2.58,1.32,5.14,0.88,7.66c-0.43,2.52-1.51,4.8-3.24,6.83c-1.73,2.03-4.01,3.6-6.84,4.72c-2.08,0.82-4.14,1.23-6.19,1.23
		c-2.05,0-3.97-0.37-5.76-1.11c-1.8-0.74-3.39-1.77-4.76-3.11C147.58,294.74,146.53,293.16,145.81,291.33z M173.01,280.1
		c-0.76-1.93-1.95-3.37-3.56-4.29c-1.61-0.92-3.52-1.35-5.72-1.29s-4.58,0.59-7.13,1.6c-2.45,0.97-4.49,2.2-6.13,3.71
		c-1.64,1.51-2.74,3.22-3.27,5.14c-0.54,1.92-0.38,3.96,0.47,6.12c0.76,1.91,1.94,3.33,3.56,4.27c1.62,0.93,3.53,1.37,5.73,1.31
		c2.2-0.06,4.58-0.59,7.13-1.6c2.45-0.97,4.49-2.2,6.13-3.71c1.64-1.5,2.74-3.22,3.27-5.14C174.02,284.3,173.87,282.26,173.01,280.1
		z"/>
</g>
</svg>
